<?xml version="1.0" standalone="no"?>
<!DOCTYPE svg PUBLIC "-//W3C//DTD SVG 20010904//EN"
 "http://www.w3.org/TR/2001/REC-SVG-20010904/DTD/svg10.dtd">
<svg version="1.0" xmlns="http://www.w3.org/2000/svg"
 width="1024.000000pt" height="1024.000000pt" viewBox="0 0 1024.000000 1024.000000"
 preserveAspectRatio="xMidYMid meet">

<g transform="translate(100.000000,1000.000000) scale(0.080000,-0.080000)"
fill="#000000" stroke="none">
<path d="M7011 10148 c-18 -51 -48 -133 -66 -183 -19 -49 -57 -155 -85 -235
-29 -80 -54 -152 -57 -160 -3 -8 -14 -35 -23 -60 -9 -25 -52 -137 -95 -250
-104 -274 -124 -329 -136 -368 -6 -18 -24 -63 -41 -100 -27 -61 -48 -116 -124
-327 -14 -38 -31 -79 -37 -90 -10 -19 -49 -123 -88 -233 -10 -29 -50 -133 -88
-230 -38 -97 -85 -220 -105 -272 -19 -53 -51 -136 -71 -185 -20 -50 -45 -117
-55 -150 -10 -33 -41 -116 -68 -185 -51 -125 -62 -156 -107 -283 -13 -37 -44
-118 -68 -180 -59 -150 -58 -146 -77 -197 -10 -25 -26 -67 -37 -95 -11 -27
-47 -122 -81 -210 -33 -88 -80 -205 -103 -260 -50 -119 -69 -169 -115 -295
-19 -52 -44 -113 -54 -135 -10 -22 -40 -96 -65 -165 -25 -69 -57 -152 -70
-185 -13 -33 -51 -132 -85 -220 -33 -88 -74 -194 -91 -235 -18 -41 -51 -127
-74 -190 -24 -63 -53 -137 -65 -165 -12 -27 -36 -93 -55 -145 -18 -52 -73
-201 -123 -330 -49 -129 -106 -282 -125 -340 -20 -58 -52 -148 -72 -200 -20
-52 -54 -147 -75 -210 -21 -63 -55 -160 -75 -215 -42 -116 -228 -663 -356
-1045 -49 -146 -93 -274 -98 -285 -14 -29 -78 -219 -100 -295 -10 -36 -22 -74
-27 -84 -5 -13 -4 -17 4 -13 6 4 14 22 17 40 7 31 42 126 73 197 18 40 44 107
78 200 14 36 29 74 34 85 18 39 42 101 66 175 14 41 31 89 38 105 8 17 19 48
26 70 7 22 19 53 28 70 8 16 29 70 47 120 42 116 151 411 182 495 14 36 32 83
40 105 123 334 210 564 308 815 7 19 37 98 66 175 28 77 59 156 69 175 10 19
36 89 58 155 22 66 55 154 72 195 18 41 42 104 55 140 53 146 94 235 109 238
9 2 16 -1 16 -6 0 -11 -46 -192 -60 -237 -12 -37 -61 -241 -84 -350 -10 -44
-22 -90 -27 -103 -5 -13 -9 -25 -9 -27 0 -3 600 -5 1334 -5 1089 0 1337 2
1348 13 7 7 38 25 68 39 364 173 348 164 355 199 3 19 21 81 40 139 18 58 54
173 80 255 26 83 82 258 125 390 44 132 95 290 114 350 20 61 58 179 86 263
27 84 50 159 50 166 0 7 -26 29 -58 49 -76 47 -391 255 -465 306 l-57 41 -730
0 c-644 0 -731 2 -736 15 -7 16 98 335 122 373 l14 22 1025 0 1025 0 29 58
c16 31 57 120 91 197 34 77 80 179 101 226 21 47 39 90 39 95 0 5 11 25 24 44
12 19 29 52 35 73 7 20 32 77 56 125 l44 87 -1463 3 -1463 2 44 123 c24 67 59
165 77 217 19 52 48 131 66 175 34 86 54 141 179 502 44 128 85 241 90 251 5
10 44 119 85 243 41 123 95 283 120 354 43 125 164 500 241 748 20 65 35 121
32 123 -2 2 -19 -37 -36 -88z m-1023 -3010 c-11 -40 -31 -102 -45 -138 -13
-36 -42 -123 -64 -195 -23 -71 -52 -161 -66 -200 -13 -38 -39 -122 -58 -185
-31 -109 -51 -166 -80 -235 -7 -16 -36 -100 -65 -185 -29 -85 -63 -184 -77
-220 -13 -36 -31 -93 -39 -127 -8 -34 -17 -68 -19 -76 -4 -10 37 -35 139 -85
80 -40 148 -72 151 -72 3 0 39 -20 79 -45 l75 -45 690 0 c765 0 708 5 677 -63
-18 -41 -53 -147 -72 -217 -8 -30 -24 -85 -35 -122 l-20 -68 -1029 0 c-600 0
-1030 4 -1030 9 0 5 13 40 29 78 16 38 68 170 115 293 47 124 119 313 162 420
42 107 89 229 104 270 15 41 47 120 70 175 23 55 53 129 67 165 13 36 31 81
38 100 35 90 149 409 162 454 8 28 21 58 28 66 7 8 16 31 20 50 8 39 54 158
79 205 9 17 16 38 16 48 0 9 4 17 9 17 5 0 0 -33 -11 -72z"/>
<path d="M1376 7512 c-3 -5 10 -40 29 -79 18 -38 40 -92 48 -119 14 -44 76
-200 112 -279 7 -16 36 -88 65 -160 28 -71 66 -166 85 -210 19 -44 52 -127 75
-185 23 -58 54 -134 70 -170 29 -64 117 -277 190 -460 21 -52 90 -223 155
-380 64 -157 170 -420 235 -585 66 -165 124 -308 130 -317 5 -10 10 -23 10
-29 0 -6 15 -47 34 -92 19 -45 60 -145 90 -222 30 -77 66 -166 80 -197 l26
-58 599 0 600 0 24 43 c14 23 269 529 568 1125 299 596 558 1111 576 1145 l32
62 1 588 0 587 -342 -2 -343 -3 -21 -60 c-11 -33 -44 -108 -72 -167 -29 -59
-63 -135 -76 -170 -14 -35 -49 -115 -79 -179 -30 -63 -58 -126 -62 -140 -4
-13 -22 -55 -40 -94 -19 -38 -43 -92 -53 -120 -11 -27 -39 -90 -62 -140 -59
-126 -70 -152 -70 -160 0 -4 -16 -42 -36 -84 -20 -42 -54 -116 -76 -166 -22
-49 -46 -103 -53 -120 -7 -16 -59 -133 -116 -260 -56 -126 -126 -279 -155
-338 -30 -59 -54 -112 -54 -117 0 -4 -12 -27 -27 -49 l-27 -42 -42 118 c-23
65 -53 152 -67 193 -26 78 -133 387 -232 665 -31 88 -67 192 -80 230 -26 79
-103 297 -139 395 -55 147 -140 387 -147 415 -4 17 -16 55 -28 85 -68 183 -84
229 -94 268 l-10 42 -613 0 c-337 0 -615 -4 -618 -8z"/>
</g>
</svg>
